<?xml version='1.0' encoding='utf-8'?>
<mxfile host="app.diagrams.net" agent="Claude Code" version="22.1.0" type="device">
  <diagram name="Fluxo Home Care" id="flow-diagram">
    <mxGraphModel dx="1500" dy="1000" grid="1" gridSize="10" guides="1" tooltips="1" connect="1" arrows="1" fold="1" page="1" pageScale="1" pageWidth="2500" pageHeight="2000">
      <root>
        <mxCell id="0" />
        <mxCell id="1" parent="0" />
        <mxCell id="title" value="&lt;h1&gt;Fluxo de Negócio - Módulo Home Care&lt;/h1&gt;&lt;br/&gt;Da Contratação até o Faturamento" style="text;html=1;strokeColor=none;fillColor=none;align=center;verticalAlign=middle;whiteSpace=wrap;rounded=0;fontSize=16;fontStyle=1" vertex="1" parent="1">
          <mxGeometry x="400" y="20" width="600" height="60" as="geometry" />
        </mxCell>
        <mxCell id="lane_commercial" value="&lt;b&gt;COMERCIAL&lt;/b&gt;" style="swimlane;fontStyle=1;align=center;verticalAlign=top;childLayout=stackLayout;horizontal=1;startSize=30;fillColor=#f5f5f5;strokeColor=#666666;" vertex="1" parent="1">
          <mxGeometry x="50" y="100" width="2000" height="200" as="geometry" />
        </mxCell>
        <mxCell id="lane_medical" value="&lt;b&gt;EQUIPE MÉDICA&lt;/b&gt;" style="swimlane;fontStyle=1;align=center;verticalAlign=top;childLayout=stackLayout;horizontal=1;startSize=30;fillColor=#f5f5f5;strokeColor=#666666;" vertex="1" parent="1">
          <mxGeometry x="50" y="320" width="2000" height="200" as="geometry" />
        </mxCell>
        <mxCell id="lane_execution" value="&lt;b&gt;EXECUÇÃO&lt;/b&gt;" style="swimlane;fontStyle=1;align=center;verticalAlign=top;childLayout=stackLayout;horizontal=1;startSize=30;fillColor=#f5f5f5;strokeColor=#666666;" vertex="1" parent="1">
          <mxGeometry x="50" y="540" width="2000" height="200" as="geometry" />
        </mxCell>
        <mxCell id="lane_financial" value="&lt;b&gt;FINANCEIRO&lt;/b&gt;" style="swimlane;fontStyle=1;align=center;verticalAlign=top;childLayout=stackLayout;horizontal=1;startSize=30;fillColor=#f5f5f5;strokeColor=#666666;" vertex="1" parent="1">
          <mxGeometry x="50" y="760" width="2000" height="200" as="geometry" />
        </mxCell>
        <mxCell id="step1" value="&lt;b&gt;1. Cadastrar Cliente&lt;/b&gt;&lt;br/&gt;company, person" style="rounded=1;whiteSpace=wrap;html=1;fillColor=#e1f5fe;strokeColor=#6c8ebf;fontStyle=1;fontSize=11;" vertex="1" parent="1">
          <mxGeometry x="100" y="150" width="140" height="60" as="geometry" />
        </mxCell>
        <mxCell id="step2" value="&lt;b&gt;2. Criar Contrato&lt;/b&gt;&lt;br/&gt;monthly_value&lt;br/&gt;contract_type" style="rounded=1;whiteSpace=wrap;html=1;fillColor=#e1f5fe;strokeColor=#6c8ebf;fontStyle=1;fontSize=11;" vertex="1" parent="1">
          <mxGeometry x="300" y="150" width="140" height="60" as="geometry" />
        </mxCell>
        <mxCell id="step3" value="&lt;b&gt;3. Adicionar Vidas&lt;/b&gt;&lt;br/&gt;contract_lives&lt;br/&gt;person_id" style="rounded=1;whiteSpace=wrap;html=1;fillColor=#e1f5fe;strokeColor=#6c8ebf;fontStyle=1;fontSize=11;" vertex="1" parent="1">
          <mxGeometry x="500" y="150" width="140" height="60" as="geometry" />
        </mxCell>
        <mxCell id="step4" value="&lt;b&gt;4. Definir Serviços&lt;/b&gt;&lt;br/&gt;contract_services&lt;br/&gt;limits" style="rounded=1;whiteSpace=wrap;html=1;fillColor=#e1f5fe;strokeColor=#6c8ebf;fontStyle=1;fontSize=11;" vertex="1" parent="1">
          <mxGeometry x="700" y="150" width="140" height="60" as="geometry" />
        </mxCell>
        <mxCell id="arrow_1_2" value="" style="edgeStyle=orthogonalEdgeStyle;rounded=0;orthogonalLoop=1;jettySize=auto;html=1;strokeWidth=2;fontSize=10;" edge="1" parent="1" source="step1" target="step2">
          <mxGeometry relative="1" as="geometry" />
        </mxCell>
        <mxCell id="arrow_2_3" value="" style="edgeStyle=orthogonalEdgeStyle;rounded=0;orthogonalLoop=1;jettySize=auto;html=1;strokeWidth=2;fontSize=10;" edge="1" parent="1" source="step2" target="step3">
          <mxGeometry relative="1" as="geometry" />
        </mxCell>
        <mxCell id="arrow_3_4" value="" style="edgeStyle=orthogonalEdgeStyle;rounded=0;orthogonalLoop=1;jettySize=auto;html=1;strokeWidth=2;fontSize=10;" edge="1" parent="1" source="step3" target="step4">
          <mxGeometry relative="1" as="geometry" />
        </mxCell>
        <mxCell id="step5" value="&lt;b&gt;5. Solicitar Autorização&lt;/b&gt;&lt;br/&gt;medical_authorization&lt;br/&gt;service_id, diagnosis" style="rounded=1;whiteSpace=wrap;html=1;fillColor=#fff9c4;strokeColor=#6c8ebf;fontStyle=1;fontSize=11;" vertex="1" parent="1">
          <mxGeometry x="900" y="370" width="160" height="60" as="geometry" />
        </mxCell>
        <mxCell id="decision1" value="Requer&lt;br/&gt;autorização?" style="rhombus;whiteSpace=wrap;html=1;fillColor=#fff2cc;strokeColor=#d6b656;fontStyle=1;fontSize=10;" vertex="1" parent="1">
          <mxGeometry x="1140" y="340" width="120" height="120" as="geometry" />
        </mxCell>
        <mxCell id="step6" value="&lt;b&gt;6. Aprovar/Rejeitar&lt;/b&gt;&lt;br/&gt;status, authorized_by" style="rounded=1;whiteSpace=wrap;html=1;fillColor=#fff9c4;strokeColor=#6c8ebf;fontStyle=1;fontSize=11;" vertex="1" parent="1">
          <mxGeometry x="1320" y="370" width="160" height="60" as="geometry" />
        </mxCell>
        <mxCell id="arrow_4_5" value="Enviar para médico" style="edgeStyle=orthogonalEdgeStyle;rounded=0;orthogonalLoop=1;jettySize=auto;html=1;strokeWidth=2;fontSize=10;" edge="1" parent="1" source="step4" target="step5">
          <mxGeometry relative="1" as="geometry" />
        </mxCell>
        <mxCell id="arrow_5_d1" value="" style="edgeStyle=orthogonalEdgeStyle;rounded=0;orthogonalLoop=1;jettySize=auto;html=1;strokeWidth=2;fontSize=10;" edge="1" parent="1" source="step5" target="decision1">
          <mxGeometry relative="1" as="geometry" />
        </mxCell>
        <mxCell id="arrow_d1_6" value="SIM" style="edgeStyle=orthogonalEdgeStyle;rounded=0;orthogonalLoop=1;jettySize=auto;html=1;strokeWidth=2;fontSize=10;" edge="1" parent="1" source="decision1" target="step6">
          <mxGeometry relative="1" as="geometry" />
        </mxCell>
        <mxCell id="step7" value="&lt;b&gt;7. Agendar Serviço&lt;/b&gt;&lt;br/&gt;professional_schedule&lt;br/&gt;datetime" style="rounded=1;whiteSpace=wrap;html=1;fillColor=#c8e6c9;strokeColor=#6c8ebf;fontStyle=1;fontSize=11;" vertex="1" parent="1">
          <mxGeometry x="1550" y="590" width="160" height="60" as="geometry" />
        </mxCell>
        <mxCell id="step8" value="&lt;b&gt;8. Executar Serviço&lt;/b&gt;&lt;br/&gt;service_execution&lt;br/&gt;checklist" style="rounded=1;whiteSpace=wrap;html=1;fillColor=#c8e6c9;strokeColor=#6c8ebf;fontStyle=1;fontSize=11;" vertex="1" parent="1">
          <mxGeometry x="1770" y="590" width="160" height="60" as="geometry" />
        </mxCell>
        <mxCell id="arrow_d1_7" value="NÃO&#10;(autorizado)" style="edgeStyle=orthogonalEdgeStyle;rounded=0;orthogonalLoop=1;jettySize=auto;html=1;strokeWidth=2;fontSize=10;" edge="1" parent="1" source="decision1" target="step7">
          <mxGeometry relative="1" as="geometry" />
        </mxCell>
        <mxCell id="arrow_6_7" value="Aprovado" style="edgeStyle=orthogonalEdgeStyle;rounded=0;orthogonalLoop=1;jettySize=auto;html=1;strokeWidth=2;fontSize=10;" edge="1" parent="1" source="step6" target="step7">
          <mxGeometry relative="1" as="geometry" />
        </mxCell>
        <mxCell id="arrow_7_8" value="" style="edgeStyle=orthogonalEdgeStyle;rounded=0;orthogonalLoop=1;jettySize=auto;html=1;strokeWidth=2;fontSize=10;" edge="1" parent="1" source="step7" target="step8">
          <mxGeometry relative="1" as="geometry" />
        </mxCell>
        <mxCell id="decision2" value="Fim do&lt;br/&gt;ciclo?" style="rhombus;whiteSpace=wrap;html=1;fillColor=#fff2cc;strokeColor=#d6b656;fontStyle=1;fontSize=10;" vertex="1" parent="1">
          <mxGeometry x="1140" y="780" width="120" height="120" as="geometry" />
        </mxCell>
        <mxCell id="step9" value="&lt;b&gt;9. Gerar Fatura&lt;/b&gt;&lt;br/&gt;contract_invoice&lt;br/&gt;billing_schedule" style="rounded=1;whiteSpace=wrap;html=1;fillColor=#ffe0b2;strokeColor=#6c8ebf;fontStyle=1;fontSize=11;" vertex="1" parent="1">
          <mxGeometry x="1320" y="810" width="160" height="60" as="geometry" />
        </mxCell>
        <mxCell id="step10" value="&lt;b&gt;10. Enviar Cobrança&lt;/b&gt;&lt;br/&gt;PagBank, Email" style="rounded=1;whiteSpace=wrap;html=1;fillColor=#ffe0b2;strokeColor=#6c8ebf;fontStyle=1;fontSize=11;" vertex="1" parent="1">
          <mxGeometry x="1550" y="810" width="160" height="60" as="geometry" />
        </mxCell>
        <mxCell id="step11" value="&lt;b&gt;11. Receber Pagamento&lt;/b&gt;&lt;br/&gt;payment_receipt&lt;br/&gt;comprovante" style="rounded=1;whiteSpace=wrap;html=1;fillColor=#ffe0b2;strokeColor=#6c8ebf;fontStyle=1;fontSize=11;" vertex="1" parent="1">
          <mxGeometry x="1770" y="810" width="160" height="60" as="geometry" />
        </mxCell>
        <mxCell id="arrow_8_d2" value="Rastrear uso" style="edgeStyle=orthogonalEdgeStyle;rounded=0;orthogonalLoop=1;jettySize=auto;html=1;strokeWidth=2;fontSize=10;" edge="1" parent="1" source="step8" target="decision2">
          <mxGeometry relative="1" as="geometry" />
        </mxCell>
        <mxCell id="arrow_d2_9" value="SIM" style="edgeStyle=orthogonalEdgeStyle;rounded=0;orthogonalLoop=1;jettySize=auto;html=1;strokeWidth=2;fontSize=10;" edge="1" parent="1" source="decision2" target="step9">
          <mxGeometry relative="1" as="geometry" />
        </mxCell>
        <mxCell id="arrow_9_10" value="" style="edgeStyle=orthogonalEdgeStyle;rounded=0;orthogonalLoop=1;jettySize=auto;html=1;strokeWidth=2;fontSize=10;" edge="1" parent="1" source="step9" target="step10">
          <mxGeometry relative="1" as="geometry" />
        </mxCell>
        <mxCell id="arrow_10_11" value="" style="edgeStyle=orthogonalEdgeStyle;rounded=0;orthogonalLoop=1;jettySize=auto;html=1;strokeWidth=2;fontSize=10;" edge="1" parent="1" source="step10" target="step11">
          <mxGeometry relative="1" as="geometry" />
        </mxCell>
        <mxCell id="arrow_d2_loop" value="NÃO&#10;(continuar)" style="edgeStyle=orthogonalEdgeStyle;curved=1;rounded=0;orthogonalLoop=1;jettySize=auto;html=1;strokeWidth=2;fontSize=10;" edge="1" parent="1" source="decision2" target="step5">
          <mxGeometry relative="1" as="geometry" />
        </mxCell>
        <mxCell id="alert" value="&lt;b&gt;Alertas de Limites&lt;/b&gt;&lt;br/&gt;limits_violation&lt;br/&gt;alerts_log" style="rounded=1;whiteSpace=wrap;html=1;fillColor=#f8bbd0;strokeColor=#6c8ebf;fontStyle=1;fontSize=11;" vertex="1" parent="1">
          <mxGeometry x="900" y="810" width="160" height="60" as="geometry" />
        </mxCell>
        <mxCell id="arrow_8_alert" value="Verificar limites" style="edgeStyle=orthogonalEdgeStyle;rounded=0;orthogonalLoop=1;jettySize=auto;html=1;strokeWidth=2;fontSize=10;" edge="1" parent="1" source="step8" target="alert">
          <mxGeometry relative="1" as="geometry" />
        </mxCell>
        <mxCell id="legend_bg" value="" style="rounded=1;whiteSpace=wrap;html=1;fillColor=#ffffff;strokeColor=#6c8ebf;fontStyle=1;fontSize=11;" vertex="1" parent="1">
          <mxGeometry x="50" y="1020" width="2000" height="100" as="geometry" />
        </mxCell>
        <mxCell id="legend_content" value="&lt;b&gt;Tabelas Principais:&lt;/b&gt; clients, contracts, contract_lives, contract_services, medical_authorizations, service_executions, contract_invoices, payment_receipts&#10;&lt;b&gt;Controles Automáticos:&lt;/b&gt; limits_configuration, service_usage_tracking, alerts_configuration | &lt;b&gt;Total: 15+ tabelas interconectadas&lt;/b&gt;" style="text;html=1;strokeColor=none;fillColor=none;align=left;verticalAlign=top;whiteSpace=wrap;rounded=0;fontSize=10;" vertex="1" parent="1">
          <mxGeometry x="70" y="1030" width="1950" height="80" as="geometry" />
        </mxCell>
      </root>
    </mxGraphModel>
  </diagram>
</mxfile>